<svg width="14" height="15" viewBox="0 0 14 15" fill="none" xmlns="http://www.w3.org/2000/svg">
<path d="M1.60584 13.5509H12.3951V5.70415H1.60584V13.5509ZM4.54837 4.23289V2.02599C4.54837 1.95447 4.52538 1.89572 4.47941 1.84975C4.43343 1.80377 4.37468 1.78078 4.30316 1.78078H3.81274C3.74122 1.78078 3.68247 1.80377 3.63649 1.84975C3.59052 1.89572 3.56753 1.95447 3.56753 2.02599V4.23289C3.56753 4.30441 3.59052 4.36316 3.63649 4.40913C3.68247 4.45511 3.74122 4.4781 3.81274 4.4781H4.30316C4.37468 4.4781 4.43343 4.45511 4.47941 4.40913C4.52538 4.36316 4.54837 4.30441 4.54837 4.23289ZM10.4334 4.23289V2.02599C10.4334 1.95447 10.4104 1.89572 10.3645 1.84975C10.3185 1.80377 10.2597 1.78078 10.1882 1.78078H9.6978C9.62628 1.78078 9.56753 1.80377 9.52155 1.84975C9.47557 1.89572 9.45259 1.95447 9.45259 2.02599V4.23289C9.45259 4.30441 9.47557 4.36316 9.52155 4.40913C9.56753 4.45511 9.62628 4.4781 9.6978 4.4781H10.1882C10.2597 4.4781 10.3185 4.45511 10.3645 4.40913C10.4104 4.36316 10.4334 4.30441 10.4334 4.23289ZM13.376 3.74247V13.5509C13.376 13.8165 13.2789 14.0464 13.0848 14.2406C12.8906 14.4347 12.6608 14.5317 12.3951 14.5317H1.60584C1.3402 14.5317 1.11031 14.4347 0.916188 14.2406C0.722063 14.0464 0.625 13.8165 0.625 13.5509V3.74247C0.625 3.47682 0.722063 3.24694 0.916188 3.05281C1.11031 2.85869 1.3402 2.76162 1.60584 2.76162H2.58669V2.02599C2.58669 1.68883 2.70674 1.40019 2.94684 1.16009C3.18694 0.919989 3.47557 0.799938 3.81274 0.799938H4.30316C4.64033 0.799938 4.92896 0.919989 5.16906 1.16009C5.40916 1.40019 5.52921 1.68883 5.52921 2.02599V2.76162H8.47174V2.02599C8.47174 1.68883 8.59179 1.40019 8.8319 1.16009C9.072 0.919989 9.36063 0.799938 9.6978 0.799938H10.1882C10.5254 0.799938 10.814 0.919989 11.0541 1.16009C11.2942 1.40019 11.4143 1.68883 11.4143 2.02599V2.76162H12.3951C12.6608 2.76162 12.8906 2.85869 13.0848 3.05281C13.2789 3.24694 13.376 3.47682 13.376 3.74247Z" fill="#666666"/>
</svg>
