<svg width="43" height="71" viewBox="0 0 43 71" fill="none" xmlns="http://www.w3.org/2000/svg">
<path d="M34.2507 34.7932L20.9488 0.919922C20.9488 0.919922 7.75772 34.7421 7.79402 34.7932L12.2688 40.8096C12.2688 40.8096 8.24928 34.9646 8.08024 34.7932C8.3688 34.5344 18.2201 13.124 20.9488 6.09526C22.2397 9.86359 29.8199 32.975 30.4427 34.7932L22.2584 41.2941L20.9488 18.0432L18.8356 56.7711H23.1131L22.5391 46.3753C22.9254 45.9932 34.2507 34.7932 34.2507 34.7932Z" fill="#FBB03B"/>
<path d="M9.05982 63.8074C9.02196 63.5183 7.99608 62.4527 7.73915 62.4032L1.41089 62.3965C1.12182 62.4343 0.0562593 63.4602 0.00674074 63.7171L0 69.2671C0.0417407 69.5824 0.984926 70.5284 1.22319 70.574L7.96522 70.5556C8.23174 70.0545 8.84982 69.8502 9.05308 69.2604C8.88871 67.569 9.27889 65.4446 9.05982 63.8079V63.8074ZM6.71948 68.2399H2.34007V64.8825C2.34007 64.8719 2.47541 64.7366 2.48604 64.7366H6.57326C6.58389 64.7366 6.71922 64.8719 6.71922 64.8825V68.2399H6.71948Z" fill="#FBB03B"/>
<path d="M32.1202 63.9073C32.0559 63.3624 31.2327 62.7064 30.8026 62.4028L24.304 62.4205C24.1464 62.4682 23.1013 63.5532 23.0702 63.7168L23.0635 69.2667C23.1052 69.582 24.0484 70.528 24.2867 70.5736L30.7124 70.5804C31.0015 70.5425 32.067 69.5166 32.1166 69.2597C31.9734 67.5714 32.3151 65.5539 32.1204 63.9073H32.1202ZM29.7827 67.8991C29.7827 67.9518 29.6318 68.1151 29.6855 68.2398H25.4036V64.7364H29.6367C29.6474 64.7364 29.7827 64.8718 29.7827 64.8824V67.8991Z" fill="#FBB03B"/>
<path d="M35.9136 62.4009V65.3204H39.7089V62.4009H42.0446V70.5753H39.7089V67.8018C39.7089 67.7914 39.5733 67.6558 39.5629 67.6558H35.9136V70.5753H33.5779V64.7365C33.5779 64.6927 32.7021 64.7804 32.7021 64.7365V62.4009H35.9136Z" fill="#FBB03B"/>
<path d="M12.8501 70.5756H10.5144V65.4666C10.5144 65.4562 10.65 65.3206 10.6604 65.3206H12.8499V66.4883H16.0613V64.7368H9.63867V62.5473C9.63867 62.537 9.77426 62.4014 9.78464 62.4014H17.1805C17.2596 62.4014 18.2655 63.4464 18.3049 63.5151C18.6298 64.0806 18.2668 66.8622 18.377 67.6851C18.2375 67.837 17.3571 68.824 17.2777 68.824H12.9958C12.9855 68.824 12.8499 68.9596 12.8499 68.97V70.5756H12.8501Z" fill="#FBB03B"/>
<path d="M21.9001 62.4009H19.5645V70.5753H21.9001V62.4009Z" fill="#FBB03B"/>
</svg>
