<svg width="342" height="74" viewBox="0 0 342 74" fill="none" xmlns="http://www.w3.org/2000/svg">
<path d="M34.6557 44.8193L17.3888 0.848633C17.3888 0.848633 0.265481 44.753 0.312597 44.8193L6.12132 52.6291C6.12132 52.6291 0.903566 45.0417 0.68414 44.8193C1.05871 44.4834 13.8467 16.6907 17.3888 7.56669C19.0644 12.4583 28.9042 42.4591 29.7126 44.8193L19.0886 53.2581L17.3888 23.0763L14.6456 73.3486H20.1982L19.4531 59.854C19.9546 59.3579 34.6557 44.8193 34.6557 44.8193Z" fill="#FBB03B"/>
<path d="M100.804 21.3647C100.582 19.6683 94.5616 13.4151 93.0538 13.1245L55.9165 13.085C54.2201 13.3071 47.9669 19.3275 47.6763 20.8353L47.6367 53.4052C47.8817 55.2552 53.4167 60.807 54.815 61.0748L94.3805 60.9668C95.9446 58.0258 99.5717 56.8269 100.765 53.3656C99.7999 43.4396 102.09 30.9727 100.804 21.3678V21.3647ZM87.0699 47.3772H61.3694V27.6743C61.3694 27.6119 62.1636 26.8177 62.226 26.8177H86.2118C86.2742 26.8177 87.0684 27.6119 87.0684 27.6743V47.3772H87.0699Z" fill="#FBB03B"/>
<path d="M236.134 21.9513C235.756 18.7532 230.926 14.9039 228.401 13.1223L190.265 13.2258C189.34 13.5057 183.207 19.873 183.024 20.8331L182.984 53.4029C183.229 55.253 188.764 60.8048 190.163 61.0726L227.872 61.1122C229.568 60.89 235.822 54.8696 236.112 53.3619C235.272 43.4541 237.278 31.6141 236.135 21.9513H236.134ZM222.416 45.3773C222.416 45.6861 221.531 46.6446 221.845 47.3764H196.717V26.817H221.559C221.622 26.817 222.416 27.6112 222.416 27.6735V45.3773Z" fill="#FBB03B"/>
<path d="M258.395 13.1108V30.244H280.668V13.1108H294.375V61.0824H280.668V44.8059C280.668 44.745 279.872 43.9493 279.811 43.9493H258.395V61.0824H244.688V26.8177C244.688 26.5605 239.549 27.0748 239.549 26.8177V13.1108H258.395Z" fill="#FBB03B"/>
<path d="M123.047 61.0834H109.341V31.1015C109.341 31.0406 110.136 30.2449 110.197 30.2449H123.046V37.0976H141.892V26.8186H104.201V13.9699C104.201 13.909 104.997 13.1133 105.058 13.1133H148.46C148.924 13.1133 154.828 19.2463 155.059 19.6495C156.965 22.9678 154.835 39.2915 155.482 44.1206C154.663 45.0122 149.497 50.8044 149.031 50.8044H123.903C123.842 50.8044 123.046 51.6001 123.046 51.661V61.0834H123.047Z" fill="#FBB03B"/>
<path d="M176.158 13.1108H162.451V61.0824H176.158V13.1108Z" fill="#FBB03B"/>
</svg>
