<svg width="342" height="74" viewBox="0 0 342 74" fill="none" xmlns="http://www.w3.org/2000/svg">
<path d="M34.6567 44.5179L17.3897 0.547241C17.3897 0.547241 0.266458 44.4516 0.313574 44.5179L6.1223 52.3277C6.1223 52.3277 0.904543 44.7403 0.685117 44.5179C1.05969 44.182 13.8476 16.3893 17.3897 7.2653C19.0654 12.1569 28.9052 42.1577 29.7136 44.5179L19.0896 52.9567L17.3897 22.7749L14.6466 73.0472H20.1992L19.4541 59.5526C19.9555 59.0565 34.6567 44.5179 34.6567 44.5179Z" fill="black"/>
<path d="M100.804 21.0634C100.582 19.367 94.5616 13.1138 93.0538 12.8232L55.9165 12.7836C54.2201 13.0058 47.9669 19.0262 47.6763 20.5339L47.6367 53.1038C47.8817 54.9539 53.4167 60.5057 54.815 60.7735L94.3805 60.6655C95.9446 57.7245 99.5717 56.5256 100.765 53.0643C99.7999 43.1383 102.09 30.6714 100.804 21.0664V21.0634ZM87.0699 47.0758H61.3694V27.3729C61.3694 27.3105 62.1636 26.5163 62.226 26.5163H86.2118C86.2742 26.5163 87.0684 27.3105 87.0684 27.3729V47.0758H87.0699Z" fill="black"/>
<path d="M236.134 21.65C235.756 18.4519 230.926 14.6026 228.401 12.821L190.265 12.9244C189.34 13.2044 183.207 19.5717 183.024 20.5317L182.984 53.1016C183.229 54.9517 188.764 60.5035 190.163 60.7713L227.872 60.8108C229.568 60.5887 235.822 54.5683 236.112 53.0605C235.272 43.1528 237.278 31.3128 236.135 21.65H236.134ZM222.416 45.0759C222.416 45.3848 221.531 46.3433 221.845 47.0751H196.717V26.5156H221.559C221.622 26.5156 222.416 27.3098 222.416 27.3722V45.0759Z" fill="black"/>
<path d="M258.396 12.8096V29.9427H280.669V12.8096H294.376V60.7812H280.669V44.5046C280.669 44.4438 279.873 43.6481 279.812 43.6481H258.396V60.7812H244.689V26.5164C244.689 26.2593 239.55 26.7735 239.55 26.5164V12.8096H258.396Z" fill="black"/>
<path d="M123.047 60.7822H109.341V30.8003C109.341 30.7394 110.136 29.9437 110.197 29.9437H123.046V36.7964H141.892V26.5174H104.201V13.6687C104.201 13.6078 104.997 12.8121 105.058 12.8121H148.46C148.924 12.8121 154.828 18.9451 155.059 19.3483C156.965 22.6666 154.835 38.9903 155.482 43.8194C154.663 44.711 149.497 50.5032 149.031 50.5032H123.903C123.842 50.5032 123.046 51.2989 123.046 51.3598V60.7822H123.047Z" fill="black"/>
<path d="M176.157 12.8096H162.45V60.7812H176.157V12.8096Z" fill="black"/>
</svg>
