<svg width="12" height="12" viewBox="0 0 12 12" fill="none" xmlns="http://www.w3.org/2000/svg">
<path d="M9.36306 6.5158V9.66851C9.36306 9.78235 9.32146 9.88088 9.23827 9.96407C9.15507 10.0473 9.05655 10.0889 8.9427 10.0889H6.42053V7.5667H4.73909V10.0889H2.21692C2.10307 10.0889 2.00455 10.0473 1.92135 9.96407C1.83816 9.88088 1.79656 9.78235 1.79656 9.66851V6.5158C1.79656 6.51142 1.79765 6.50485 1.79984 6.49609C1.80203 6.48733 1.80313 6.48077 1.80313 6.47639L5.57981 3.36309L9.35649 6.47639C9.36087 6.48515 9.36306 6.49828 9.36306 6.5158ZM10.8278 6.06259L10.4205 6.54864C10.3855 6.58805 10.3395 6.61213 10.2826 6.62089H10.2629C10.206 6.62089 10.16 6.60556 10.125 6.57491L5.57981 2.78509L1.03465 6.57491C0.982109 6.60994 0.929564 6.62527 0.877019 6.62089C0.820095 6.61213 0.774118 6.58805 0.739088 6.54864L0.331863 6.06259C0.296833 6.01881 0.281507 5.96736 0.285886 5.90824C0.290265 5.84913 0.314348 5.80206 0.358136 5.76703L5.08063 1.83271C5.22075 1.71886 5.38714 1.66194 5.57981 1.66194C5.77248 1.66194 5.93887 1.71886 6.07899 1.83271L7.68162 3.17261V1.89182C7.68162 1.83052 7.70132 1.78016 7.74073 1.74076C7.78014 1.70135 7.83049 1.68164 7.8918 1.68164H9.15288C9.21418 1.68164 9.26454 1.70135 9.30395 1.74076C9.34336 1.78016 9.36306 1.83052 9.36306 1.89182V4.57163L10.8015 5.76703C10.8453 5.80206 10.8694 5.84913 10.8737 5.90824C10.8781 5.96736 10.8628 6.01881 10.8278 6.06259Z" fill="#FBB03B"/>
</svg>
