<svg width="37" height="33" viewBox="0 0 37 33" fill="none" xmlns="http://www.w3.org/2000/svg">
<path d="M14.7081 0.939941L8.96273 24.2231L7.58385 17.5708C9.80538 17.5708 11.6439 18.2589 13.0994 19.6353C14.5549 21.0116 15.2826 22.8468 15.2826 25.1407C15.2826 27.4346 14.5549 29.3079 13.0994 30.7607C11.6439 32.2135 9.84368 32.9399 7.69876 32.9399C5.47723 32.9399 3.63872 32.2135 2.18323 30.7607C0.727743 29.2315 0 27.3581 0 25.1407C0 24.376 0.0383022 23.6496 0.114907 22.9614C0.268116 22.2733 0.497929 21.4704 0.804348 20.5528C1.11077 19.5588 1.53209 18.3736 2.06832 16.9973L7.46894 0.939941H14.7081ZM36.4255 0.939941L30.6801 24.2231L29.3012 17.5708C31.5228 17.5708 33.3613 18.2589 34.8168 19.6353C36.2723 21.0116 37 22.8468 37 25.1407C37 27.4346 36.2723 29.3079 34.8168 30.7607C33.3613 32.2135 31.5611 32.9399 29.4161 32.9399C27.1946 32.9399 25.3561 32.2135 23.9006 30.7607C22.4451 29.2315 21.7174 27.3581 21.7174 25.1407C21.7174 24.376 21.7557 23.6496 21.8323 22.9614C21.9855 22.2733 22.2153 21.4704 22.5217 20.5528C22.8282 19.5588 23.2495 18.3736 23.7857 16.9973L29.1863 0.939941H36.4255Z" fill="#FBB03B"/>
</svg>
