<svg width="761" height="126" viewBox="0 0 761 126" fill="none" xmlns="http://www.w3.org/2000/svg">
<path d="M138.35 22.4518C137.776 18.064 122.204 1.89056 118.304 1.13894L22.2511 1.03662C17.8634 1.61116 1.68987 17.1826 0.938252 21.0823L0.835938 105.322C1.4695 110.108 15.7856 124.467 19.402 125.16L121.736 124.88C125.781 117.273 135.163 114.173 138.248 105.22C135.753 79.5471 141.675 47.3023 138.35 22.4596V22.4518ZM102.827 89.7313H36.3547V38.771C36.3547 38.6096 38.4089 36.5554 38.5702 36.5554H100.608C100.769 36.5554 102.824 38.6096 102.824 38.771V89.7313H102.827Z" fill="#FBB03B"/>
<path d="M488.371 23.9686C487.395 15.6969 474.901 5.74089 468.373 1.13281L369.734 1.40038C367.341 2.12445 351.479 18.5931 351.007 21.0762L350.904 105.316C351.538 110.101 365.854 124.461 369.47 125.153L467.003 125.256C471.391 124.681 487.565 109.11 488.316 105.21C486.144 79.5842 491.331 48.9608 488.375 23.9686H488.371ZM452.892 84.5583C452.892 85.3571 450.602 87.8362 451.416 89.729H386.423V36.5532H450.676C450.838 36.5532 452.892 38.6073 452.892 38.7687V84.5583Z" fill="#FBB03B"/>
<path d="M545.952 1.10352V45.4174H603.559V1.10352H639.011V125.179H603.559V83.0809C603.559 82.9235 601.501 80.8654 601.343 80.8654H545.952V125.179H510.5V36.5554C510.5 35.8904 497.207 37.2205 497.207 36.5554V1.10352H545.952Z" fill="#FBB03B"/>
<path d="M195.882 125.182H160.43V47.6353C160.43 47.4779 162.488 45.4198 162.645 45.4198H195.878V63.1438H244.623V36.5578H147.137V3.32541C147.137 3.168 149.195 1.10986 149.352 1.10986H261.611C262.811 1.10986 278.079 16.9725 278.677 18.0153C283.608 26.5979 278.099 68.8183 279.771 81.3085C277.654 83.6145 264.29 98.5957 263.086 98.5957H198.093C197.936 98.5957 195.878 100.654 195.878 100.811V125.182H195.882Z" fill="#FBB03B"/>
<path d="M333.246 1.10352H297.794V125.179H333.246V1.10352Z" fill="#FBB03B"/>
<path d="M667.952 124.306V120.952L687.367 81.0624L645.713 5.51947V0.753906H681.013L704.312 46.2915H705.194L726.374 0.753906H760.616V5.51947L702.017 124.306H667.952Z" fill="#FBB03B"/>
</svg>
